[2025-06-08 22:21:22] Script started with 1 arguments: /Users/christian/Dropbox/Camera Uploads/2025-07-08 17.40.36.heic
[2025-06-08 22:21:22] Running Image Converter...
[2025-06-08 22:21:23] Running Video Processor...
[2025-06-08 22:21:23] Running Image Processor...
[2025-06-08 22:21:23] Running File Organizer...
[2025-06-08 22:21:23] Script completed successfully
[2025-06-08 22:21:28] Script started with 1 arguments: /Users/christian/Dropbox/Camera Uploads/2025-07-08 17.40.36.jpg
[2025-06-08 22:21:28] Running Image Converter...
[2025-06-08 22:21:28] Running Video Processor...
[2025-06-08 22:21:28] Running Image Processor...
[2025-06-08 22:21:32] Running File Organizer...
[2025-06-08 22:21:32] Script completed successfully
[2025-06-08 22:21:32] Script started with 1 arguments: /Users/christian/Dropbox/Camera Uploads/2025-07-08 17.40.34.jpg
[2025-06-08 22:21:32] Running Image Converter...
[2025-06-08 22:21:32] Running Video Processor...
[2025-06-08 22:21:32] Running Image Processor...
[2025-06-08 22:21:36] Script started with 1 arguments: /Users/christian/Dropbox/Camera Uploads/2025-07-08 17.00.30.mov
[2025-06-08 22:21:36] Running Image Converter...
[2025-06-08 22:21:36] Running Video Processor...
[22:21:36] Compile-time hardening features are enabled
[2025-06-08 22:21:36] Running File Organizer...
[2025-06-08 22:21:36] Script completed successfully
[22:21:37] hb_init: starting libhb thread
[22:21:37] thread 16fe77000 started ("libhb")
HandBrake 1.9.2 (2025022300) - Darwin arm64 - https://handbrake.fr
8 CPUs detected
Invalid preset medium
Valid presets are:
    General/
        Very Fast 2160p60 4K AV1
            AV1 video (up to 2160p60) and AAC stereo audio, in an MP4
            container.
        Very Fast 2160p60 4K HEVC
            H.265 video (up to 2160p60) and AAC stereo audio, in an MP4
            container.
        Very Fast 1080p30
            Small H.264 video (up to 1080p30) and AAC stereo audio, in
            an MP4 container.
        Very Fast 720p30
            Small H.264 video (up to 720p30) and AAC stereo audio, in an
            MP4 container.
        Very Fast 576p25
            Small H.264 video (up to 576p25) and AAC stereo audio, in an
            MP4 container.
        Very Fast 480p30
            Small H.264 video (up to 480p30) and AAC stereo audio, in an
            MP4 container.
        Fast 2160p60 4K AV1
            AV1 video (up to 2160p60) and AAC stereo audio, in an MP4
            container.
        Fast 2160p60 4K HEVC
            H.265 video (up to 2160p60) and AAC stereo audio, in an MP4
            container.
        Fast 1080p30
            H.264 video (up to 1080p30) and AAC stereo audio, in an MP4
            container.
        Fast 720p30
            H.264 video (up to 720p30) and AAC stereo audio, in an MP4
            container.
        Fast 576p25
            H.264 video (up to 576p25) and AAC stereo audio, in an MP4
            container.
        Fast 480p30
            H.264 video (up to 480p30) and AAC stereo audio, in an MP4
            container.
        HQ 2160p60 4K AV1 Surround
            High quality AV1 video (up to 2160p60), AAC stereo audio,
            and Dolby Digital (AC-3) surround audio, in an MP4
            container.
        HQ 2160p60 4K HEVC Surround
            High quality H.265 video (up to 2160p60), AAC stereo audio,
            and Dolby Digital (AC-3) surround audio, in an MP4
            container.
        HQ 1080p30 Surround
            High quality H.264 video (up to 1080p30), AAC stereo audio,
            and Dolby Digital (AC-3) surround audio, in an MP4
            container.
        HQ 720p30 Surround
            High quality H.264 video (up to 720p30), AAC stereo audio,
            and Dolby Digital (AC-3) surround audio, in an MP4
            container.
        HQ 576p25 Surround
            High quality H.264 video (up to 576p25), AAC stereo audio,
            and Dolby Digital (AC-3) surround audio, in an MP4
            container.
        HQ 480p30 Surround
            High quality H.264 video (up to 480p30), AAC stereo audio,
            and Dolby Digital (AC-3) surround audio, in an MP4
            container.
        Super HQ 2160p60 4K AV1 Surround
            Super high quality AV1 video (up to 2160p60), AAC stereo
            audio, and Dolby Digital (AC-3) surround audio, in an MP4
            container.
        Super HQ 2160p60 4K HEVC Surround
            Super high quality H.265 video (up to 2160p60), AAC stereo
            audio, and Dolby Digital (AC-3) surround audio, in an MP4
            container.
        Super HQ 1080p30 Surround
            Super high quality H.264 video (up to 1080p30), AAC stereo
            audio, and Dolby Digital (AC-3) surround audio, in an MP4
            container.
        Super HQ 720p30 Surround
            Super high quality H.264 video (up to 720p30), AAC stereo
            audio, and Dolby Digital (AC-3) surround audio, in an MP4
            container.
        Super HQ 576p25 Surround
            Super high quality H.264 video (up to 576p25), AAC stereo
            audio, and Dolby Digital (AC-3) surround audio, in an MP4
            container.
        Super HQ 480p30 Surround
            Super high quality H.264 video (up to 480p30), AAC stereo
            audio, and Dolby Digital (AC-3) surround audio, in an MP4
            container.
    Web/
        Creator 2160p60 4K
            High quality video for publishing via online services such
            as Vimeo and YouTube. H.264 video (up to 2160p60) and high
            bit rate AAC stereo audio in an MP4 container.
        Creator 1440p60 2.5K
            High quality video for publishing via online services such
            as Vimeo and YouTube. H.264 video (up to 1440p60) and high
            bit rate AAC stereo audio in an MP4 container.
        Creator 1080p60
            High quality video for publishing via online services such
            as Vimeo and YouTube. H.264 video (up to 1080p60) and high
            bit rate AAC stereo audio in an MP4 container.
        Creator 720p60
            High quality video for publishing via online services such
            as Vimeo and YouTube. H.264 video (up to 720p60) and high
            bit rate AAC stereo audio in an MP4 container.
        Social 25 MB 30 Seconds 1080p60
            Up to 30 seconds of video in 25 MB or less, for sharing via
            online social communities such as Discord and email services
            such as Gmail. H.264 video (up to 1080p60) and AAC stereo
            audio, in an MP4 container.
        Social 25 MB 1 Minute 720p60
            Up to 1 minute of video in 25 MB or less, for sharing via
            online social communities such as Discord and email services
            such as Gmail. H.264 video (up to 720p60) and AAC stereo
            audio, in an MP4 container.
        Social 25 MB 2 Minutes 540p60
            Up to 2 minutes of video in 25 MB or less, for sharing via
            online social communities such as Discord and email services
            such as Gmail. H.264 video (up to 540p60) and AAC stereo
            audio, in an MP4 container.
        Social 25 MB 5 Minutes 360p60
            Up to 5 minutes of video in 25 MB or less, for sharing via
            online social communities such as Discord and email services
            such as Gmail. H.264 video (up to 360p60) and AAC stereo
            audio, in an MP4 container.
    Devices/
        Amazon Fire 2160p60 4K HEVC Surround
            H.265 video (up to 2160p60), AAC stereo audio, and Dolby
            Digital (AC-3) audio, in an MP4 container. Compatible with
            Amazon Fire TV 3rd Generation and later; Fire TV Stick 4K;
            Fire TV Cube.
        Amazon Fire 1080p30 Surround
            H.264 video (up to 1080p30), AAC stereo audio, and Dolby
            Digital (AC-3) audio, in an MP4 container. Compatible with
            Amazon Fire TV 1st Generation and later; Fire TV Stick 1st
            Generation and later; Fire HD 10 7th Generation (2017); Fire
            HDX 4th Generation (2014).
        Amazon Fire 720p30
            H.264 video (up to 720p30) and AAC stereo audio, in an MP4
            container. Compatible with Amazon Fire HD 4th Generation
            (2014) and later; Kindle Fire HDX 3rd Generation (2013);
            Kindle Fire HD 2nd Generation (2012) and later.
        Android 1080p30
            H.264 video (up to 1080p30) and AAC stereo audio, in an MP4
            container. Compatible with Android devices.
        Android 720p30
            H.264 video (up to 720p30) and AAC stereo audio, in an MP4
            container. Compatible with Android devices.
        Android 576p25
            H.264 video (up to 576p25) and AAC stereo audio, in an MP4
            container. Compatible with Android devices.
        Android 480p30
            H.264 video (up to 480p30) and AAC stereo audio, in an MP4
            container. Compatible with Android devices.
        Apple 2160p60 4K HEVC Surround
            H.265 video (up to 2160p60), AAC stereo audio, and Dolby
            Digital (AC-3) surround audio, in an MP4 container.
            Compatible with Apple iPhone 7 and later; Apple TV 4K.
        Apple 1080p60 Surround
            H.264 video (up to 1080p60), AAC stereo audio, and Dolby
            Digital (AC-3) surround audio, in an MP4 container.
            Compatible with Apple iPad 5th and 6th Generation; iPad mini
            2, 3, and 4; iPad Air 1st Generation and Air 2; iPad Pro
            1st, 2nd, and 3rd Generation; Apple TV 4th Generation and
            later.
        Apple 1080p30 Surround
            H.264 video (up to 1080p30), AAC stereo audio, and Dolby
            Digital (AC-3) surround audio, in an MP4 container.
            Compatible with Apple iPhone 5, 5s, SE, 6, 6 Plus, 6s, 6s
            Plus, and later; iPod touch 6th Generation; iPad 3rd, 4th
            Generation and later; iPad mini 1st Generation and later;
            Apple TV 3rd, 4th Generation and later.
        Apple 720p30 Surround
            H.264 video (up to 720p30), AAC stereo audio, and Dolby
            Digital (AC-3) surround audio, in an MP4 container.
            Compatible with Apple iPhone 4, 4S, and later; iPod touch
            4th, 5th Generation and later; iPad 1st Generation, iPad 2,
            and later; Apple TV 2nd Generation and later.
        Apple 540p30 Surround
            H.264 video (up to 540p30), AAC stereo audio, and Dolby
            Digital (AC-3) surround audio, in an MP4 container.
            Compatible with Apple iPhone 1st Generation, 3G, 3GS, and
            later; iPod touch 1st, 2nd, 3rd Generation and later; iPod
            Classic; Apple TV 1st Generation and later.
        Chromecast 2160p60 4K HEVC Surround
            H.265 video (up to 2160p60), AAC stereo audio, and Dolby
            Digital (AC-3) surround audio, in an MP4 container.
            Compatible with Google Chromecast Ultra.
        Chromecast 1080p60 Surround
            H.264 video (up to 1080p60), AAC stereo audio, and Dolby
            Digital (AC-3) surround audio, in an MP4 container.
            Compatible with Google Chromecast 3rd Generation.
        Chromecast 1080p30 Surround
            H.264 video (up to 1080p30), AAC stereo audio, and Dolby
            Digital (AC-3) surround audio, in an MP4 container.
            Compatible with Google Chromecast 1st, 2nd Generation and
            later.
        Playstation 2160p60 4K Surround
            H.264 video (up to 2160p60), AAC stereo audio, and Dolby
            Digital (AC-3) surround audio, in an MP4 container.
            Compatible with Playstation 4 Pro.
        Playstation 1080p30 Surround
            H.264 video (up to 1080p30), AAC stereo audio, and Dolby
            Digital (AC-3) surround audio, in an MP4 container.
            Compatible with Playstation 3 and 4.
        Playstation 720p30
            H.264 video (up to 720p30) and AAC stereo audio, in an MP4
            container. Compatible with Playstation Vita TV.
        Playstation 540p30
            H.264 video (up to 540p30) and AAC stereo audio, in an MP4
            container. Compatible with Playstation Vita.
        Roku 2160p60 4K HEVC Surround
            H.265 video (up to 2160p60), AAC stereo audio, and surround
            audio, in an MKV container. Compatible with Roku 4,
            Streaming Stick+, Premiere+, and Ultra.
        Roku 1080p30 Surround
            H.264 video (up to 1080p30), AAC stereo audio, and Dolby
            Digital (AC-3) surround audio, in an MP4 container.
            Compatible with Roku 1080p models.
        Roku 720p30 Surround
            H.264 video (up to 720p30), AAC stereo audio, and Dolby
            Digital (AC-3) surround audio, in an MP4 container.
            Compatible with Roku 720p models.
        Roku 576p25
            H.264 video (up to 576p25) and AAC stereo audio, in an MP4
            container. Compatible with Roku standard definition models.
        Roku 480p30
            H.264 video (up to 480p30) and AAC stereo audio, in an MP4
            container. Compatible with Roku standard definition models.
        Xbox 1080p30 Surround
            H.264 video (up to 1080p30), AAC stereo audio, and Dolby
            Digital (AC-3) surround audio, in an MP4 container.
            Compatible with Xbox One.
    Matroska/
        AV1 MKV 2160p60 4K
            AV1 video (up to 2160p60) and Opus stereo audio, in an MKV
            container.
        H.265 MKV 2160p60 4K
            H.265 video (up to 2160p60) and AAC stereo audio, in an MKV
            container.
        H.265 MKV 1080p30
            H.265 video (up to 1080p30) and AAC stereo audio, in an MKV
            container.
        H.265 MKV 720p30
            H.265 video (up to 720p30) and AAC stereo audio, in an MKV
            container.
        H.265 MKV 576p25
            H.265 video (up to 576p25) and AAC stereo audio, in an MKV
            container.
        H.265 MKV 480p30
            H.265 video (up to 480p30) and AAC stereo audio, in an MKV
            container.
        H.264 MKV 2160p60 4K
            H.264 video (up to 2160p60) and AAC stereo audio, in an MKV
            container.
        H.264 MKV 1080p30
            H.264 video (up to 1080p30) and AAC stereo audio, in an MKV
            container.
        H.264 MKV 720p30
            H.264 video (up to 720p30) and AAC stereo audio, in an MKV
            container.
        H.264 MKV 576p25
            H.264 video (up to 576p25) and AAC stereo audio, in an MKV
            container.
        H.264 MKV 480p30
            H.264 video (up to 480p30) and AAC stereo audio, in an MKV
            container.
        VP9 MKV 2160p60 4K
            VP9 video (up to 2160p60) and Opus stereo audio, in an MKV
            container.
        VP9 MKV 1080p30
            VP9 video (up to 1080p30) and Opus stereo audio, in an MKV
            container.
        VP9 MKV 720p30
            VP9 video (up to 720p30) and Opus stereo audio, in an MKV
            container.
        VP9 MKV 576p25
            VP9 video (up to 576p25) and Opus stereo audio, in an MKV
            container.
        VP9 MKV 480p30
            VP9 video (up to 480p30) and Opus stereo audio, in an MKV
            container.
    Hardware/
        AV1 QSV 2160p 4K
            Intel Quick Sync Video hardware accelerated AV1 video (up to
            2160p) and AAC stereo audio, in an MP4 container.
        H.265 NVENC 2160p 4K
            Nvidia NVENC hardware accelerated H.265 video (up to 2160p)
            and AAC stereo audio, in an MP4 container.
        H.265 NVENC 1080p
            Nvidia NVENC hardware accelerated H.265 video (up to 1080p)
            and AAC stereo audio, in an MP4 container.
        H.265 QSV 2160p 4K
            Intel Quick Sync Video hardware accelerated H.265 video (up
            to 2160p) and AAC stereo audio, in an MP4 container.
        H.265 QSV 1080p
            Intel Quick Sync Video hardware accelerated H.265 video (up
            to 1080p) and AAC stereo audio, in an MP4 container.
        H.265 VCN 2160p 4K
            AMD VCN hardware accelerated H.265 video (up to 2160p) and
            AAC stereo audio, in an MP4 container.
        H.265 VCN 1080p
            AMD VCN hardware accelerated H.265 video (up to 1080p) and
            AAC stereo audio, in an MP4 container.
        H.265 MF 2160p 4K
            Hardware accelerated H.265 video (up to 2160p) and AAC
            stereo audio, in an MP4 container for ARM based platforms
            using Media Foundation
        H.265 MF 1080p
            Hardware accelerated H.265 video (up to 1080p) and AAC
            stereo audio, in an MP4 container for ARM based platforms
            using Media Foundation
        H.265 Apple VideoToolbox 2160p 4K
            Apple VideoToolbox hardware accelerated H.265 video (up to
            2160p) and AAC stereo audio, in an MP4 container.
        H.265 Apple VideoToolbox 1080p
            Apple VideoToolbox hardware accelerated H.265 video (up to
            1080p) and AAC stereo audio, in an MP4 container.
    Professional/
        Production Max
            Maximum bit rate, constant frame rate H.264 video and high
            bit rate AAC stereo audio in an MP4 container. For
            professional use as an intermediate format for video
            editing. Creates gigantic files.
        Production Standard
            High bit rate, constant frame rate H.264 video and high bit
            rate AAC stereo audio in an MP4 container. For professional
            use as an intermediate format for video editing. Creates
            very large files.
        Production Proxy 1080p
            Intra-only, constant frame rate H.264 video (up to 1080p)
            and high bit rate AAC stereo audio in an MP4 container. For
            professional use as a low resolution proxy format for video
            editing.
        Production Proxy 540p
            Intra-only, constant frame rate H.264 video (up to 540p) and
            high bit rate AAC stereo audio in an MP4 container. For
            professional use as a low resolution proxy format for video
            editing.
        Preservation FFV1
            Lossless FFV1 video and original audio with FLAC fallback in
            an MKV container. For professional use as an archival format
            for digital preservation. Creates extremely large files.
    CLI Defaults/
        CLI Default
HandBrake has exited.
[2025-06-08 22:21:37] ERROR: Video Processor failed
[2025-06-08 22:23:42] Script started with 1 arguments: /Users/christian/Dropbox/Camera Uploads/2025-07-08 17.00.30.mp4
[2025-06-08 22:23:42] Running Image Converter...
[2025-06-08 22:23:42] Running Video Processor...
[2025-06-08 22:23:42] Running Image Processor...
[2025-06-08 22:23:42] Running File Organizer...
[2025-06-08 22:23:42] Script completed successfully
[2025-06-08 22:24:18] Script started with 1 arguments: /Users/christian/Dropbox/Camera Uploads/2025-07-08 17.00.30.mp4
[2025-06-08 22:24:18] Running Image Converter...
[2025-06-08 22:24:18] Running Video Processor...
[2025-06-08 22:24:18] Running Image Processor...
[2025-06-08 22:24:18] Running File Organizer...
[2025-06-08 22:24:18] Script completed successfully
[2025-06-08 22:24:50] Script started with 1 arguments: /Users/christian/Dropbox/Camera Uploads/2025-07-08 17.00.30.mov
[2025-06-08 22:24:50] Running Image Converter...
[2025-06-08 22:24:50] Running Video Processor...
[22:24:50] Compile-time hardening features are enabled
[22:24:50] hb_init: starting libhb thread
[22:24:50] thread 16bd33000 started ("libhb")
HandBrake 1.9.2 (2025022300) - Darwin arm64 - https://handbrake.fr
8 CPUs detected
Opening /Users/christian/Dropbox/Camera Uploads/2025-07-08 17.00.30.mov...
[22:24:50] CPU: Apple M3
[22:24:50]  - logical processor count: 8
[22:24:50] hb_scan: path=/Users/christian/Dropbox/Camera Uploads/2025-07-08 17.00.30.mov, title_index=1
Input #0, mov,mp4,m4a,3gp,3g2,mj2, from '/Users/christian/Dropbox/Camera Uploads/2025-07-08 17.00.30.mov':
  Metadata:
    major_brand     : qt  
    minor_version   : 0
    compatible_brands: qt  
    creation_time   : 2025-06-08T15:00:31.000000Z
    com.apple.quicktime.location.accuracy.horizontal: 17.779372
    com.apple.quicktime.full-frame-rate-playback-intent: 0
    com.apple.quicktime.location.ISO6709: +55.6182+012.3350+011.489/
    com.apple.quicktime.make: Apple
    com.apple.quicktime.model: iPhone 16 Pro
    com.apple.quicktime.software: 18.5
    com.apple.quicktime.creationdate: 2025-06-08T17:00:30+0200
  Duration: 00:00:11.90, start: 0.000000, bitrate: 10443 kb/s
  Stream #0:0[0x1](und): Video: hevc (Main) (hvc1 / 0x31637668), yuv420p(tv, bt709), 1920x1080, 9820 kb/s, 29.99 fps, 29.97 tbr, 600 tbn (default)
      Metadata:
        creation_time   : 2025-06-08T15:00:31.000000Z
        handler_name    : Core Media Video
        vendor_id       : [0][0][0][0]
        encoder         : HEVC
      Side data:
        displaymatrix: rotation of -90.00 degrees
  Stream #0:1[0x2](und): Audio: aac (LC) (mp4a / 0x6134706D), 48000 Hz, stereo, fltp, 128 kb/s (default)
      Metadata:
        creation_time   : 2025-06-08T15:00:31.000000Z
        handler_name    : Core Media Audio
        vendor_id       : [0][0][0][0]
  Stream #0:2[0x3](und): Audio: none (apac / 0x63617061), 48000 Hz, 4 channels, 399 kb/s
      Metadata:
        creation_time   : 2025-06-08T15:00:31.000000Z
        handler_name    : Core Media Audio
        vendor_id       : [0][0][0][0]
      Side data:
        unknown side data type 9 (4 bytes)
  Stream #0:3[0x4](und): Data: none (mebx / 0x7862656D), 0 kb/s (default)
      Metadata:
        creation_time   : 2025-06-08T15:00:31.000000Z
        handler_name    : Core Media Metadata
  Stream #0:4[0x5](und): Data: none (mebx / 0x7862656D), 0 kb/s (default)
      Metadata:
        creation_time   : 2025-06-08T15:00:31.000000Z
        handler_name    : Core Media Metadata
  Stream #0:5[0x6](und): Data: none (mebx / 0x7862656D), 14 kb/s (default)
      Metadata:
        creation_time   : 2025-06-08T15:00:31.000000Z
        handler_name    : Core Media Metadata
  Stream #0:6[0x7](und): Data: none (mebx / 0x7862656D), 46 kb/s (default)
      Metadata:
        creation_time   : 2025-06-08T15:00:31.000000Z
        handler_name    : Core Media Metadata
  Stream #0:7[0x8](und): Data: none (mebx / 0x7862656D), 0 kb/s (default)
      Metadata:
        creation_time   : 2025-06-08T15:00:31.000000Z
        handler_name    : Core Media Metadata
[22:24:50] scan: decoding previews for title 1
[22:24:50] Auto-Rotating video 270 degrees
Scanning title 1 of 1, preview 1, 10.00 %[22:24:51] scan: audio 0x1: aac, rate=48000Hz, bitrate=128248 Unknown (AAC LC, 2.0 ch, 128 kbps)
Scanning title 1 of 1, preview 3, 30.00 %Scanning title 1 of 1, preview 5, 50.00 %Scanning title 1 of 1, preview 7, 70.00 %Scanning title 1 of 1, preview 10, 100.00 %[22:24:51] scan: 10 previews, 1080x1920, 29.992 fps, autocrop = 0/0/0/0, aspect 1:1.78, PAR 1:1, color profile: 1-1-1, chroma location: left
[22:24:52] libhb: scan thread found 1 valid title(s)
+ Using preset: HQ 1080p30 Surround
+ title 1:
  + stream: /Users/christian/Dropbox/Camera Uploads/2025-07-08 17.00.30.mov
  + duration: 00:00:11
  + size: 1080x1920, pixel aspect: 1/1, display aspect: 0.56, 29.992 fps
  + autocrop: 0/0/0/0
  + chapters:
    + 1: duration 00:00:11
  + audio tracks:
    + 1, Unknown (AAC LC, 2.0 ch, 128 kbps) (iso639-2: und)
  + subtitle tracks:
[22:24:52] Starting work at: Sun Jun  8 22:24:52 2025

[22:24:52] 1 job(s) to process
[22:24:52] json job:
{
    "Audio": {
        "AudioList": [
            {
                "Bitrate": 160,
                "CompressionLevel": -1.0,
                "DRC": 0.0,
                "DitherMethod": "auto",
                "Encoder": "ca_aac",
                "Gain": 0.0,
                "Mixdown": "stereo",
                "NormalizeMixLevel": false,
                "PresetEncoder": "ca_aac",
                "Quality": -3.0,
                "Samplerate": 0,
                "Track": 0
            },
            {
                "Bitrate": 640,
                "CompressionLevel": -1.0,
                "DRC": 0.0,
                "DitherMethod": "auto",
                "Encoder": "ac3",
                "Gain": 0.0,
                "Mixdown": "stereo",
                "NormalizeMixLevel": false,
                "PresetEncoder": "copy:ac3",
                "Quality": -3.0,
                "Samplerate": 0,
                "Track": 0
            }
        ],
        "CopyMask": [
            "copy:aac",
            "copy:ac3"
        ],
        "FallbackEncoder": "ca_aac"
    },
    "Destination": {
        "AlignAVStart": true,
        "ChapterList": [
            {
                "Duration": {
                    "Hours": 0,
                    "Minutes": 0,
                    "Seconds": 11,
                    "Ticks": 1071299
                },
                "Name": ""
            }
        ],
        "ChapterMarkers": false,
        "File": "/Users/christian/Dropbox/Camera Uploads/2025-07-08 17.00.30.mp4",
        "InlineParameterSets": false,
        "Mux": "m4v",
        "Options": {
            "IpodAtom": false,
            "Optimize": true
        }
    },
    "Filters": {
        "FilterList": [
            {
                "ID": 4,
                "Settings": {
                    "block-height": "16",
                    "block-thresh": "40",
                    "block-width": "16",
                    "filter-mode": "2",
                    "mode": "3",
                    "motion-thresh": "1",
                    "spatial-metric": "2",
                    "spatial-thresh": "1"
                }
            },
            {
                "ID": 6,
                "Settings": {
                    "mode": "7"
                }
            },
            {
                "ID": 11,
                "Settings": {
                    "mode": 2,
                    "rate": "27000000/900000"
                }
            },
            {
                "ID": 20,
                "Settings": {
                    "crop-bottom": 0,
                    "crop-left": 0,
                    "crop-right": 0,
                    "crop-top": 0,
                    "height": 1080,
                    "width": 1080
                }
            }
        ]
    },
    "Metadata": {},
    "PAR": {
        "Den": 16,
        "Num": 9
    },
    "SequenceID": 0,
    "Source": {
        "Angle": 0,
        "HWDecode": 0,
        "KeepDuplicateTitles": false,
        "Path": "/Users/christian/Dropbox/Camera Uploads/2025-07-08 17.00.30.mov",
        "Range": {
            "End": 1,
            "Start": 1,
            "Type": "chapter"
        },
        "Title": 1
    },
    "Subtitle": {
        "Search": {
            "Burn": true,
            "Default": false,
            "Enable": false,
            "Forced": false
        },
        "SubtitleList": []
    },
    "Video": {
        "ChromaLocation": 1,
        "ColorInputFormat": 0,
        "ColorMatrix": 1,
        "ColorOutputFormat": 0,
        "ColorPrimaries": 1,
        "ColorRange": 1,
        "ColorTransfer": 1,
        "Encoder": "x264",
        "HardwareDecode": 0,
        "Level": "4.0",
        "MultiPass": false,
        "Options": "",
        "Preset": "slow",
        "Profile": "high",
        "QSV": {
            "AdapterIndex": 0,
            "AsyncDepth": 0,
            "Decode": false
        },
        "Quality": 20.0,
        "Tune": "",
        "Turbo": false
    }
}
[22:24:52] Starting Task: Encoding Pass
[22:24:52] job configuration:
[22:24:52]  * source
[22:24:52]    + /Users/christian/Dropbox/Camera Uploads/2025-07-08 17.00.30.mov
[22:24:52]    + title 1, chapter(s) 1 to 1
[22:24:52]    + container: mov,mp4,m4a,3gp,3g2,mj2
[22:24:52]    + data rate: 10443 kbps
[22:24:52]  * destination
[22:24:52]    + /Users/christian/Dropbox/Camera Uploads/2025-07-08 17.00.30.mp4
[22:24:52]    + container: MPEG-4 (libavformat)
[22:24:52]      + optimized for HTTP streaming (fast start)
[22:24:52]      + align initial A/V stream timestamps
[22:24:52]  * video track
[22:24:52]    + decoder: hevc 8-bit (yuv420p)
[22:24:52]      + bitrate 9820 kbps
[22:24:52]    + filters
[22:24:52]      + Comb Detect (mode=3:spatial-metric=2:motion-thresh=1:spatial-thresh=1:filter-mode=2:block-thresh=40:block-width=16:block-height=16)
[22:24:52]      + Decomb (mode=39)
[22:24:52]      + Framerate Shaper (mode=2:rate=27000000/900000)
[22:24:52]        + frame rate: 29.992 fps -> peak rate limited to 30.000 fps
[22:24:52]      + Crop and Scale (width=1080:height=1080:crop-top=0:crop-bottom=0:crop-left=0:crop-right=0)
[22:24:52]        + source: 1080 * 1920, crop (0/0/0/0): 1080 * 1920, scale: 1080 * 1080
[22:24:52]    + Output geometry
[22:24:52]      + storage dimensions: 1080 x 1080
[22:24:52]      + pixel aspect ratio: 9 : 16
[22:24:52]      + display dimensions: 607 x 1080
[22:24:52]    + encoder: H.264 (libx264)
[22:24:52]      + preset:  slow
[22:24:52]      + profile: high
[22:24:52]      + level:   4.0
[22:24:52]      + quality: 20.00 (RF)
[22:24:52]      + color profile: 1-1-1
[22:24:52]      + color range: tv
[22:24:52]      + chroma location: left
[22:24:52]  * audio track 1
[22:24:52]    + decoder: Unknown (AAC LC, 2.0 ch, 128 kbps) (track 1, id 0x1)
[22:24:52]      + bitrate: 128 kbps, samplerate: 48000 Hz
[22:24:52]    + mixdown: Stereo
[22:24:52]    + encoder: AAC (Apple AudioToolbox)
[22:24:52]      + bitrate: 160 kbps, samplerate: 48000 Hz
[22:24:52]  * audio track 2
[22:24:52]    + decoder: Unknown (AAC LC, 2.0 ch, 128 kbps) (track 1, id 0x1)
[22:24:52]      + bitrate: 128 kbps, samplerate: 48000 Hz
[22:24:52]    + mixdown: Stereo
[22:24:52]    + encoder: AC3 (libavcodec)
[22:24:52]      + bitrate: 640 kbps, samplerate: 48000 Hz
[22:24:52] sync: expecting 356 video frames
[22:24:52] encx264: min-keyint: 30, keyint: 300
[22:24:52] encx264: encoding at constant RF 20.000000
[22:24:52] encx264: unparsed options: level=4.0:ref=5:direct=auto:subme=8:trellis=2:vbv-bufsize=31250:vbv-maxrate=25000:rc-lookahead=50
x264 [info]: using SAR=9/16
x264 [info]: using cpu capabilities: ARMv8 NEON
x264 [info]: profile High, level 4.0, 4:2:0, 8-bit
[22:24:52] Auto-Rotating video 270 degrees
[22:24:52] sync: first pts video is 0
[22:24:52] sync: Chapter 1 at frame 1 time 0
[22:24:52] sync: first pts audio 0x1 is 0
[22:24:52] sync: first pts audio 0x1 is 0
[2025-06-08 22:24:57] Script started with 1 arguments: /Users/christian/Dropbox/Camera Uploads/2025-07-08 17.00.30.mp4
[2025-06-08 22:24:57] Running Image Converter...
[2025-06-08 22:24:57] Running Video Processor...
[2025-06-08 22:24:58] Running Image Processor...
[2025-06-08 22:24:58] Running File Organizer...
[2025-06-08 22:24:58] Script completed successfully
[22:25:06] reader: done. 1 scr changes
[22:25:12] work: average encoding speed for job is 22.094629 fps
[22:25:12] comb detect: heavy 0 | light 3 | uncombed 354 | total 357
[22:25:12] decomb: deinterlaced 0 | blended 3 | unfiltered 354 | total 357
[22:25:12] vfr: 357 frames output, 0 dropped and 0 duped for CFR/PFR
[22:25:12] vfr: lost time: 0 (0 frames)
[22:25:12] vfr: gained time: 0 (0 frames) (0 not accounted for)
[22:25:12] aac-decoder done: 558 frames, 0 decoder errors
[22:25:12] aac-decoder done: 558 frames, 0 decoder errors
[22:25:12] hevc-decoder done: 357 frames, 0 decoder errors
[22:25:12] sync: got 357 frames, 356 expected
[22:25:12] sync: framerate min 29.992 fps, max 29.992 fps, avg 29.992 fps
x264 [info]: frame I:2     Avg QP:19.52  size:134214
x264 [info]: frame P:90    Avg QP:21.00  size: 48670
x264 [info]: frame B:265   Avg QP:24.31  size: 10941
x264 [info]: consecutive B-frames:  0.8%  0.6%  0.0% 98.6%
x264 [info]: mb I  I16..4: 12.6% 65.4% 22.0%
x264 [info]: mb P  I16..4:  7.0% 16.1%  1.3%  P16..4: 41.3% 19.4% 11.4%  0.0%  0.0%    skip: 3.4%
x264 [info]: mb B  I16..4:  1.2%  2.3%  0.2%  B16..8: 39.4%  6.4%  1.2%  direct: 7.4%  skip:41.8%  L0:41.3% L1:47.6% BI:11.1%
x264 [info]: 8x8 transform intra:64.5% inter:70.5%
x264 [info]: direct mvs  spatial:97.7% temporal:2.3%
x264 [info]: coded y,uvDC,uvAC intra: 50.1% 63.1% 15.3% inter: 22.4% 31.5% 2.0%
x264 [info]: i16 v,h,dc,p: 10% 27%  6% 57%
x264 [info]: i8 v,h,dc,ddl,ddr,vr,hd,vl,hu:  9% 19% 12%  8% 10%  9% 14%  7% 14%
x264 [info]: i4 v,h,dc,ddl,ddr,vr,hd,vl,hu:  9% 21%  8%  6% 11%  9% 14%  7% 14%
x264 [info]: i8c dc,h,v,p: 39% 41% 12%  8%
x264 [info]: Weighted P-Frames: Y:5.6% UV:0.0%
x264 [info]: ref P L0: 50.5% 15.9% 16.8%  9.0%  7.7%  0.2%
x264 [info]: ref B L0: 81.0% 12.2%  4.8%  2.1%
x264 [info]: ref B L1: 93.5%  6.5%
x264 [info]: kb/s:5072.95
[mp4 @ 0x1448389b0] Unable to re-open /Users/christian/Dropbox/Camera Uploads/2025-07-08 17.00.30.mp4 output file for shifting data
[22:25:12] Finished work at: Sun Jun  8 22:25:12 2025

[22:25:12] libhb: work result = 0

Encode done!
HandBrake has exited.
[2025-06-08 22:25:12] Running Image Processor...
[2025-06-08 22:25:12] Running File Organizer...
[2025-06-08 22:25:13] Script completed successfully
[2025-06-08 22:26:48] Script started with 1 arguments: /Users/christian/Dropbox/Camera Uploads/2025-07-08 17.00.30.mov
[2025-06-08 22:26:48] Running Image Converter...
[2025-06-08 22:26:48] Running Video Processor...
[22:26:48] Compile-time hardening features are enabled
[22:26:48] hb_init: starting libhb thread
[22:26:48] thread 16d33b000 started ("libhb")
HandBrake 1.9.2 (2025022300) - Darwin arm64 - https://handbrake.fr
8 CPUs detected
Opening /Users/christian/Dropbox/Camera Uploads/2025-07-08 17.00.30.mov...
[22:26:48] CPU: Apple M3
[22:26:48]  - logical processor count: 8
[22:26:48] hb_scan: path=/Users/christian/Dropbox/Camera Uploads/2025-07-08 17.00.30.mov, title_index=1
Input #0, mov,mp4,m4a,3gp,3g2,mj2, from '/Users/christian/Dropbox/Camera Uploads/2025-07-08 17.00.30.mov':
  Metadata:
    major_brand     : qt  
    minor_version   : 0
    compatible_brands: qt  
    creation_time   : 2025-06-08T15:00:31.000000Z
    com.apple.quicktime.location.accuracy.horizontal: 17.779372
    com.apple.quicktime.full-frame-rate-playback-intent: 0
    com.apple.quicktime.location.ISO6709: +55.6182+012.3350+011.489/
    com.apple.quicktime.make: Apple
    com.apple.quicktime.model: iPhone 16 Pro
    com.apple.quicktime.software: 18.5
    com.apple.quicktime.creationdate: 2025-06-08T17:00:30+0200
  Duration: 00:00:11.90, start: 0.000000, bitrate: 10443 kb/s
  Stream #0:0[0x1](und): Video: hevc (Main) (hvc1 / 0x31637668), yuv420p(tv, bt709), 1920x1080, 9820 kb/s, 29.99 fps, 29.97 tbr, 600 tbn (default)
      Metadata:
        creation_time   : 2025-06-08T15:00:31.000000Z
        handler_name    : Core Media Video
        vendor_id       : [0][0][0][0]
        encoder         : HEVC
      Side data:
        displaymatrix: rotation of -90.00 degrees
  Stream #0:1[0x2](und): Audio: aac (LC) (mp4a / 0x6134706D), 48000 Hz, stereo, fltp, 128 kb/s (default)
      Metadata:
        creation_time   : 2025-06-08T15:00:31.000000Z
        handler_name    : Core Media Audio
        vendor_id       : [0][0][0][0]
  Stream #0:2[0x3](und): Audio: none (apac / 0x63617061), 48000 Hz, 4 channels, 399 kb/s
      Metadata:
        creation_time   : 2025-06-08T15:00:31.000000Z
        handler_name    : Core Media Audio
        vendor_id       : [0][0][0][0]
      Side data:
        unknown side data type 9 (4 bytes)
  Stream #0:3[0x4](und): Data: none (mebx / 0x7862656D), 0 kb/s (default)
      Metadata:
        creation_time   : 2025-06-08T15:00:31.000000Z
        handler_name    : Core Media Metadata
  Stream #0:4[0x5](und): Data: none (mebx / 0x7862656D), 0 kb/s (default)
      Metadata:
        creation_time   : 2025-06-08T15:00:31.000000Z
        handler_name    : Core Media Metadata
  Stream #0:5[0x6](und): Data: none (mebx / 0x7862656D), 14 kb/s (default)
      Metadata:
        creation_time   : 2025-06-08T15:00:31.000000Z
        handler_name    : Core Media Metadata
  Stream #0:6[0x7](und): Data: none (mebx / 0x7862656D), 46 kb/s (default)
      Metadata:
        creation_time   : 2025-06-08T15:00:31.000000Z
        handler_name    : Core Media Metadata
  Stream #0:7[0x8](und): Data: none (mebx / 0x7862656D), 0 kb/s (default)
      Metadata:
        creation_time   : 2025-06-08T15:00:31.000000Z
        handler_name    : Core Media Metadata
[22:26:48] scan: decoding previews for title 1
[22:26:48] Auto-Rotating video 270 degrees
Scanning title 1 of 1, preview 1, 10.00 %[22:26:48] scan: audio 0x1: aac, rate=48000Hz, bitrate=128248 Unknown (AAC LC, 2.0 ch, 128 kbps)
Scanning title 1 of 1, preview 3, 30.00 %Scanning title 1 of 1, preview 5, 50.00 %Scanning title 1 of 1, preview 7, 70.00 %Scanning title 1 of 1, preview 9, 90.00 %[22:26:49] scan: 10 previews, 1080x1920, 29.992 fps, autocrop = 0/0/0/0, aspect 1:1.78, PAR 1:1, color profile: 1-1-1, chroma location: left
[22:26:49] libhb: scan thread found 1 valid title(s)
+ Using preset: HQ 1080p30 Surround
+ title 1:
  + stream: /Users/christian/Dropbox/Camera Uploads/2025-07-08 17.00.30.mov
  + duration: 00:00:11
  + size: 1080x1920, pixel aspect: 1/1, display aspect: 0.56, 29.992 fps
  + autocrop: 0/0/0/0
  + chapters:
    + 1: duration 00:00:11
  + audio tracks:
    + 1, Unknown (AAC LC, 2.0 ch, 128 kbps) (iso639-2: und)
  + subtitle tracks:
[22:26:49] Starting work at: Sun Jun  8 22:26:49 2025

[22:26:49] 1 job(s) to process
[22:26:49] json job:
{
    "Audio": {
        "AudioList": [
            {
                "Bitrate": 160,
                "CompressionLevel": -1.0,
                "DRC": 0.0,
                "DitherMethod": "auto",
                "Encoder": "ca_aac",
                "Gain": 0.0,
                "Mixdown": "stereo",
                "NormalizeMixLevel": false,
                "PresetEncoder": "ca_aac",
                "Quality": -3.0,
                "Samplerate": 0,
                "Track": 0
            },
            {
                "Bitrate": 640,
                "CompressionLevel": -1.0,
                "DRC": 0.0,
                "DitherMethod": "auto",
                "Encoder": "ac3",
                "Gain": 0.0,
                "Mixdown": "stereo",
                "NormalizeMixLevel": false,
                "PresetEncoder": "copy:ac3",
                "Quality": -3.0,
                "Samplerate": 0,
                "Track": 0
            }
        ],
        "CopyMask": [
            "copy:aac",
            "copy:ac3"
        ],
        "FallbackEncoder": "ca_aac"
    },
    "Destination": {
        "AlignAVStart": true,
        "ChapterList": [
            {
                "Duration": {
                    "Hours": 0,
                    "Minutes": 0,
                    "Seconds": 11,
                    "Ticks": 1071299
                },
                "Name": ""
            }
        ],
        "ChapterMarkers": false,
        "File": "/Users/christian/Dropbox/Camera Uploads/2025-07-08 17.00.30.mp4",
        "InlineParameterSets": false,
        "Mux": "m4v",
        "Options": {
            "IpodAtom": false,
            "Optimize": true
        }
    },
    "Filters": {
        "FilterList": [
            {
                "ID": 4,
                "Settings": {
                    "block-height": "16",
                    "block-thresh": "40",
                    "block-width": "16",
                    "filter-mode": "2",
                    "mode": "3",
                    "motion-thresh": "1",
                    "spatial-metric": "2",
                    "spatial-thresh": "1"
                }
            },
            {
                "ID": 6,
                "Settings": {
                    "mode": "7"
                }
            },
            {
                "ID": 11,
                "Settings": {
                    "mode": 2,
                    "rate": "27000000/900000"
                }
            },
            {
                "ID": 20,
                "Settings": {
                    "crop-bottom": 0,
                    "crop-left": 0,
                    "crop-right": 0,
                    "crop-top": 0,
                    "height": 1080,
                    "width": 1080
                }
            }
        ]
    },
    "Metadata": {},
    "PAR": {
        "Den": 16,
        "Num": 9
    },
    "SequenceID": 0,
    "Source": {
        "Angle": 0,
        "HWDecode": 0,
        "KeepDuplicateTitles": false,
        "Path": "/Users/christian/Dropbox/Camera Uploads/2025-07-08 17.00.30.mov",
        "Range": {
            "End": 1,
            "Start": 1,
            "Type": "chapter"
        },
        "Title": 1
    },
    "Subtitle": {
        "Search": {
            "Burn": true,
            "Default": false,
            "Enable": false,
            "Forced": false
        },
        "SubtitleList": []
    },
    "Video": {
        "ChromaLocation": 1,
        "ColorInputFormat": 0,
        "ColorMatrix": 1,
        "ColorOutputFormat": 0,
        "ColorPrimaries": 1,
        "ColorRange": 1,
        "ColorTransfer": 1,
        "Encoder": "x264",
        "HardwareDecode": 0,
        "Level": "4.0",
        "MultiPass": false,
        "Options": "",
        "Preset": "slow",
        "Profile": "high",
        "QSV": {
            "AdapterIndex": 0,
            "AsyncDepth": 0,
            "Decode": false
        },
        "Quality": 20.0,
        "Tune": "",
        "Turbo": false
    }
}
[22:26:49] Starting Task: Encoding Pass
[22:26:49] job configuration:
[22:26:49]  * source
[22:26:49]    + /Users/christian/Dropbox/Camera Uploads/2025-07-08 17.00.30.mov
[22:26:49]    + title 1, chapter(s) 1 to 1
[22:26:49]    + container: mov,mp4,m4a,3gp,3g2,mj2
[22:26:49]    + data rate: 10443 kbps
[22:26:49]  * destination
[22:26:49]    + /Users/christian/Dropbox/Camera Uploads/2025-07-08 17.00.30.mp4
[22:26:49]    + container: MPEG-4 (libavformat)
[22:26:49]      + optimized for HTTP streaming (fast start)
[22:26:49]      + align initial A/V stream timestamps
[22:26:49]  * video track
[22:26:49]    + decoder: hevc 8-bit (yuv420p)
[22:26:49]      + bitrate 9820 kbps
[22:26:49]    + filters
[22:26:49]      + Comb Detect (mode=3:spatial-metric=2:motion-thresh=1:spatial-thresh=1:filter-mode=2:block-thresh=40:block-width=16:block-height=16)
[22:26:49]      + Decomb (mode=39)
[22:26:49]      + Framerate Shaper (mode=2:rate=27000000/900000)
[22:26:49]        + frame rate: 29.992 fps -> peak rate limited to 30.000 fps
[22:26:49]      + Crop and Scale (width=1080:height=1080:crop-top=0:crop-bottom=0:crop-left=0:crop-right=0)
[22:26:49]        + source: 1080 * 1920, crop (0/0/0/0): 1080 * 1920, scale: 1080 * 1080
[22:26:49]    + Output geometry
[22:26:49]      + storage dimensions: 1080 x 1080
[22:26:49]      + pixel aspect ratio: 9 : 16
[22:26:49]      + display dimensions: 607 x 1080
[22:26:49]    + encoder: H.264 (libx264)
[22:26:49]      + preset:  slow
[22:26:49]      + profile: high
[22:26:49]      + level:   4.0
[22:26:49]      + quality: 20.00 (RF)
[22:26:49]      + color profile: 1-1-1
[22:26:49]      + color range: tv
[22:26:49]      + chroma location: left
[22:26:49]  * audio track 1
[22:26:49]    + decoder: Unknown (AAC LC, 2.0 ch, 128 kbps) (track 1, id 0x1)
[22:26:49]      + bitrate: 128 kbps, samplerate: 48000 Hz
[22:26:49]    + mixdown: Stereo
[22:26:49]    + encoder: AAC (Apple AudioToolbox)
[22:26:49]      + bitrate: 160 kbps, samplerate: 48000 Hz
[22:26:49]  * audio track 2
[22:26:49]    + decoder: Unknown (AAC LC, 2.0 ch, 128 kbps) (track 1, id 0x1)
[22:26:49]      + bitrate: 128 kbps, samplerate: 48000 Hz
[22:26:49]    + mixdown: Stereo
[22:26:49]    + encoder: AC3 (libavcodec)
[22:26:49]      + bitrate: 640 kbps, samplerate: 48000 Hz
[22:26:49] sync: expecting 356 video frames
[22:26:49] encx264: min-keyint: 30, keyint: 300
[22:26:49] encx264: encoding at constant RF 20.000000
[22:26:49] encx264: unparsed options: level=4.0:ref=5:direct=auto:subme=8:trellis=2:vbv-bufsize=31250:vbv-maxrate=25000:rc-lookahead=50
x264 [info]: using SAR=9/16
x264 [info]: using cpu capabilities: ARMv8 NEON
x264 [info]: profile High, level 4.0, 4:2:0, 8-bit
[22:26:49] Auto-Rotating video 270 degrees
[22:26:49] sync: first pts video is 0
[22:26:49] sync: Chapter 1 at frame 1 time 0
[22:26:49] sync: first pts audio 0x1 is 0
[22:26:49] sync: first pts audio 0x1 is 0
[2025-06-08 22:26:55] Script started with 1 arguments: /Users/christian/Dropbox/Camera Uploads/2025-07-08 17.00.30.mp4
[2025-06-08 22:26:55] Running Image Converter...
[2025-06-08 22:26:55] Running Video Processor...
[2025-06-08 22:26:55] Running Image Processor...
[2025-06-08 22:26:56] Running File Organizer...
[2025-06-08 22:26:56] Script completed successfully
[22:27:04] reader: done. 1 scr changes
[22:27:11] work: average encoding speed for job is 21.317965 fps
[22:27:11] comb detect: heavy 0 | light 3 | uncombed 354 | total 357
[22:27:11] decomb: deinterlaced 0 | blended 3 | unfiltered 354 | total 357
[22:27:11] vfr: 357 frames output, 0 dropped and 0 duped for CFR/PFR
[22:27:11] vfr: lost time: 0 (0 frames)
[22:27:11] vfr: gained time: 0 (0 frames) (0 not accounted for)
[22:27:11] aac-decoder done: 558 frames, 0 decoder errors
[22:27:11] aac-decoder done: 558 frames, 0 decoder errors
[22:27:11] hevc-decoder done: 357 frames, 0 decoder errors
[22:27:11] sync: got 357 frames, 356 expected
[22:27:11] sync: framerate min 29.992 fps, max 29.992 fps, avg 29.992 fps
x264 [info]: frame I:2     Avg QP:19.52  size:134214
x264 [info]: frame P:90    Avg QP:21.00  size: 48670
x264 [info]: frame B:265   Avg QP:24.31  size: 10941
x264 [info]: consecutive B-frames:  0.8%  0.6%  0.0% 98.6%
x264 [info]: mb I  I16..4: 12.6% 65.4% 22.0%
x264 [info]: mb P  I16..4:  7.0% 16.1%  1.3%  P16..4: 41.3% 19.4% 11.4%  0.0%  0.0%    skip: 3.4%
x264 [info]: mb B  I16..4:  1.2%  2.3%  0.2%  B16..8: 39.4%  6.4%  1.2%  direct: 7.4%  skip:41.8%  L0:41.3% L1:47.6% BI:11.1%
x264 [info]: 8x8 transform intra:64.5% inter:70.5%
x264 [info]: direct mvs  spatial:97.7% temporal:2.3%
x264 [info]: coded y,uvDC,uvAC intra: 50.1% 63.1% 15.3% inter: 22.4% 31.5% 2.0%
x264 [info]: i16 v,h,dc,p: 10% 27%  6% 57%
x264 [info]: i8 v,h,dc,ddl,ddr,vr,hd,vl,hu:  9% 19% 12%  8% 10%  9% 14%  7% 14%
x264 [info]: i4 v,h,dc,ddl,ddr,vr,hd,vl,hu:  9% 21%  8%  6% 11%  9% 14%  7% 14%
x264 [info]: i8c dc,h,v,p: 39% 41% 12%  8%
x264 [info]: Weighted P-Frames: Y:5.6% UV:0.0%
x264 [info]: ref P L0: 50.5% 15.9% 16.8%  9.0%  7.7%  0.2%
x264 [info]: ref B L0: 81.0% 12.2%  4.8%  2.1%
x264 [info]: ref B L1: 93.5%  6.5%
x264 [info]: kb/s:5072.95
[mp4 @ 0x1063fbb50] Unable to re-open /Users/christian/Dropbox/Camera Uploads/2025-07-08 17.00.30.mp4 output file for shifting data
[22:27:11] Finished work at: Sun Jun  8 22:27:11 2025

[22:27:11] libhb: work result = 0

Encode done!
HandBrake has exited.
[2025-06-08 22:27:11] Running Image Processor...
[2025-06-08 22:27:11] Running File Organizer...
[2025-06-08 22:27:12] Script completed successfully
[2025-06-08 22:28:30] Script started with 1 arguments: /Users/christian/Dropbox/Camera Uploads/2025-07-08 17.00.30.mov
[2025-06-08 22:28:30] Running Image Converter...
[2025-06-08 22:28:30] Running Video Processor...
[22:28:30] Compile-time hardening features are enabled
[22:28:30] hb_init: starting libhb thread
[22:28:30] thread 16d7eb000 started ("libhb")
HandBrake 1.9.2 (2025022300) - Darwin arm64 - https://handbrake.fr
8 CPUs detected
Opening /Users/christian/Dropbox/Camera Uploads/2025-07-08 17.00.30.mov...
[22:28:30] CPU: Apple M3
[22:28:30]  - logical processor count: 8
[22:28:30] hb_scan: path=/Users/christian/Dropbox/Camera Uploads/2025-07-08 17.00.30.mov, title_index=1
Input #0, mov,mp4,m4a,3gp,3g2,mj2, from '/Users/christian/Dropbox/Camera Uploads/2025-07-08 17.00.30.mov':
  Metadata:
    major_brand     : qt  
    minor_version   : 0
    compatible_brands: qt  
    creation_time   : 2025-06-08T15:00:31.000000Z
    com.apple.quicktime.location.accuracy.horizontal: 17.779372
    com.apple.quicktime.full-frame-rate-playback-intent: 0
    com.apple.quicktime.location.ISO6709: +55.6182+012.3350+011.489/
    com.apple.quicktime.make: Apple
    com.apple.quicktime.model: iPhone 16 Pro
    com.apple.quicktime.software: 18.5
    com.apple.quicktime.creationdate: 2025-06-08T17:00:30+0200
  Duration: 00:00:11.90, start: 0.000000, bitrate: 10443 kb/s
  Stream #0:0[0x1](und): Video: hevc (Main) (hvc1 / 0x31637668), yuv420p(tv, bt709), 1920x1080, 9820 kb/s, 29.99 fps, 29.97 tbr, 600 tbn (default)
      Metadata:
        creation_time   : 2025-06-08T15:00:31.000000Z
        handler_name    : Core Media Video
        vendor_id       : [0][0][0][0]
        encoder         : HEVC
      Side data:
        displaymatrix: rotation of -90.00 degrees
  Stream #0:1[0x2](und): Audio: aac (LC) (mp4a / 0x6134706D), 48000 Hz, stereo, fltp, 128 kb/s (default)
      Metadata:
        creation_time   : 2025-06-08T15:00:31.000000Z
        handler_name    : Core Media Audio
        vendor_id       : [0][0][0][0]
  Stream #0:2[0x3](und): Audio: none (apac / 0x63617061), 48000 Hz, 4 channels, 399 kb/s
      Metadata:
        creation_time   : 2025-06-08T15:00:31.000000Z
        handler_name    : Core Media Audio
        vendor_id       : [0][0][0][0]
      Side data:
        unknown side data type 9 (4 bytes)
  Stream #0:3[0x4](und): Data: none (mebx / 0x7862656D), 0 kb/s (default)
      Metadata:
        creation_time   : 2025-06-08T15:00:31.000000Z
        handler_name    : Core Media Metadata
  Stream #0:4[0x5](und): Data: none (mebx / 0x7862656D), 0 kb/s (default)
      Metadata:
        creation_time   : 2025-06-08T15:00:31.000000Z
        handler_name    : Core Media Metadata
  Stream #0:5[0x6](und): Data: none (mebx / 0x7862656D), 14 kb/s (default)
      Metadata:
        creation_time   : 2025-06-08T15:00:31.000000Z
        handler_name    : Core Media Metadata
  Stream #0:6[0x7](und): Data: none (mebx / 0x7862656D), 46 kb/s (default)
      Metadata:
        creation_time   : 2025-06-08T15:00:31.000000Z
        handler_name    : Core Media Metadata
  Stream #0:7[0x8](und): Data: none (mebx / 0x7862656D), 0 kb/s (default)
      Metadata:
        creation_time   : 2025-06-08T15:00:31.000000Z
        handler_name    : Core Media Metadata
[22:28:30] scan: decoding previews for title 1
[22:28:30] Auto-Rotating video 270 degrees
Scanning title 1 of 1, preview 1, 10.00 %[22:28:30] scan: audio 0x1: aac, rate=48000Hz, bitrate=128248 Unknown (AAC LC, 2.0 ch, 128 kbps)
Scanning title 1 of 1, preview 3, 30.00 %Scanning title 1 of 1, preview 5, 50.00 %Scanning title 1 of 1, preview 7, 70.00 %Scanning title 1 of 1, preview 10, 100.00 %[22:28:31] scan: 10 previews, 1080x1920, 29.992 fps, autocrop = 0/0/0/0, aspect 1:1.78, PAR 1:1, color profile: 1-1-1, chroma location: left
[22:28:31] libhb: scan thread found 1 valid title(s)
+ Using preset: HQ 1080p30 Surround
+ title 1:
  + stream: /Users/christian/Dropbox/Camera Uploads/2025-07-08 17.00.30.mov
  + duration: 00:00:11
  + size: 1080x1920, pixel aspect: 1/1, display aspect: 0.56, 29.992 fps
  + autocrop: 0/0/0/0
  + chapters:
    + 1: duration 00:00:11
  + audio tracks:
    + 1, Unknown (AAC LC, 2.0 ch, 128 kbps) (iso639-2: und)
  + subtitle tracks:
[22:28:31] Starting work at: Sun Jun  8 22:28:31 2025

[22:28:31] 1 job(s) to process
[22:28:31] json job:
{
    "Audio": {
        "AudioList": [
            {
                "Bitrate": 160,
                "CompressionLevel": -1.0,
                "DRC": 0.0,
                "DitherMethod": "auto",
                "Encoder": "ca_aac",
                "Gain": 0.0,
                "Mixdown": "stereo",
                "NormalizeMixLevel": false,
                "PresetEncoder": "ca_aac",
                "Quality": -3.0,
                "Samplerate": 0,
                "Track": 0
            },
            {
                "Bitrate": 640,
                "CompressionLevel": -1.0,
                "DRC": 0.0,
                "DitherMethod": "auto",
                "Encoder": "ac3",
                "Gain": 0.0,
                "Mixdown": "stereo",
                "NormalizeMixLevel": false,
                "PresetEncoder": "copy:ac3",
                "Quality": -3.0,
                "Samplerate": 0,
                "Track": 0
            }
        ],
        "CopyMask": [
            "copy:aac",
            "copy:ac3"
        ],
        "FallbackEncoder": "ca_aac"
    },
    "Destination": {
        "AlignAVStart": true,
        "ChapterList": [
            {
                "Duration": {
                    "Hours": 0,
                    "Minutes": 0,
                    "Seconds": 11,
                    "Ticks": 1071299
                },
                "Name": ""
            }
        ],
        "ChapterMarkers": false,
        "File": "/Users/christian/Dropbox/Camera Uploads/2025-07-08 17.00.30.mp4.tmp",
        "InlineParameterSets": false,
        "Mux": "m4v",
        "Options": {
            "IpodAtom": false,
            "Optimize": true
        }
    },
    "Filters": {
        "FilterList": [
            {
                "ID": 4,
                "Settings": {
                    "block-height": "16",
                    "block-thresh": "40",
                    "block-width": "16",
                    "filter-mode": "2",
                    "mode": "3",
                    "motion-thresh": "1",
                    "spatial-metric": "2",
                    "spatial-thresh": "1"
                }
            },
            {
                "ID": 6,
                "Settings": {
                    "mode": "7"
                }
            },
            {
                "ID": 11,
                "Settings": {
                    "mode": 2,
                    "rate": "27000000/900000"
                }
            },
            {
                "ID": 20,
                "Settings": {
                    "crop-bottom": 0,
                    "crop-left": 0,
                    "crop-right": 0,
                    "crop-top": 0,
                    "height": 1080,
                    "width": 1080
                }
            }
        ]
    },
    "Metadata": {},
    "PAR": {
        "Den": 16,
        "Num": 9
    },
    "SequenceID": 0,
    "Source": {
        "Angle": 0,
        "HWDecode": 0,
        "KeepDuplicateTitles": false,
        "Path": "/Users/christian/Dropbox/Camera Uploads/2025-07-08 17.00.30.mov",
        "Range": {
            "End": 1,
            "Start": 1,
            "Type": "chapter"
        },
        "Title": 1
    },
    "Subtitle": {
        "Search": {
            "Burn": true,
            "Default": false,
            "Enable": false,
            "Forced": false
        },
        "SubtitleList": []
    },
    "Video": {
        "ChromaLocation": 1,
        "ColorInputFormat": 0,
        "ColorMatrix": 1,
        "ColorOutputFormat": 0,
        "ColorPrimaries": 1,
        "ColorRange": 1,
        "ColorTransfer": 1,
        "Encoder": "x264",
        "HardwareDecode": 0,
        "Level": "4.0",
        "MultiPass": false,
        "Options": "",
        "Preset": "slow",
        "Profile": "high",
        "QSV": {
            "AdapterIndex": 0,
            "AsyncDepth": 0,
            "Decode": false
        },
        "Quality": 20.0,
        "Tune": "",
        "Turbo": false
    }
}
[22:28:31] Starting Task: Encoding Pass
[22:28:31] job configuration:
[22:28:31]  * source
[22:28:31]    + /Users/christian/Dropbox/Camera Uploads/2025-07-08 17.00.30.mov
[22:28:31]    + title 1, chapter(s) 1 to 1
[22:28:31]    + container: mov,mp4,m4a,3gp,3g2,mj2
[22:28:31]    + data rate: 10443 kbps
[22:28:31]  * destination
[22:28:31]    + /Users/christian/Dropbox/Camera Uploads/2025-07-08 17.00.30.mp4.tmp
[22:28:31]    + container: MPEG-4 (libavformat)
[22:28:31]      + optimized for HTTP streaming (fast start)
[22:28:31]      + align initial A/V stream timestamps
[22:28:31]  * video track
[22:28:31]    + decoder: hevc 8-bit (yuv420p)
[22:28:31]      + bitrate 9820 kbps
[22:28:31]    + filters
[22:28:31]      + Comb Detect (mode=3:spatial-metric=2:motion-thresh=1:spatial-thresh=1:filter-mode=2:block-thresh=40:block-width=16:block-height=16)
[22:28:31]      + Decomb (mode=39)
[22:28:31]      + Framerate Shaper (mode=2:rate=27000000/900000)
[22:28:31]        + frame rate: 29.992 fps -> peak rate limited to 30.000 fps
[22:28:31]      + Crop and Scale (width=1080:height=1080:crop-top=0:crop-bottom=0:crop-left=0:crop-right=0)
[22:28:31]        + source: 1080 * 1920, crop (0/0/0/0): 1080 * 1920, scale: 1080 * 1080
[22:28:31]    + Output geometry
[22:28:31]      + storage dimensions: 1080 x 1080
[22:28:31]      + pixel aspect ratio: 9 : 16
[22:28:31]      + display dimensions: 607 x 1080
[22:28:31]    + encoder: H.264 (libx264)
[22:28:31]      + preset:  slow
[22:28:31]      + profile: high
[22:28:31]      + level:   4.0
[22:28:31]      + quality: 20.00 (RF)
[22:28:31]      + color profile: 1-1-1
[22:28:31]      + color range: tv
[22:28:31]      + chroma location: left
[22:28:31]  * audio track 1
[22:28:31]    + decoder: Unknown (AAC LC, 2.0 ch, 128 kbps) (track 1, id 0x1)
[22:28:31]      + bitrate: 128 kbps, samplerate: 48000 Hz
[22:28:31]    + mixdown: Stereo
[22:28:31]    + encoder: AAC (Apple AudioToolbox)
[22:28:31]      + bitrate: 160 kbps, samplerate: 48000 Hz
[22:28:31]  * audio track 2
[22:28:31]    + decoder: Unknown (AAC LC, 2.0 ch, 128 kbps) (track 1, id 0x1)
[22:28:31]      + bitrate: 128 kbps, samplerate: 48000 Hz
[22:28:31]    + mixdown: Stereo
[22:28:31]    + encoder: AC3 (libavcodec)
[22:28:31]      + bitrate: 640 kbps, samplerate: 48000 Hz
[22:28:31] sync: expecting 356 video frames
[22:28:31] encx264: min-keyint: 30, keyint: 300
[22:28:31] encx264: encoding at constant RF 20.000000
[22:28:31] encx264: unparsed options: level=4.0:ref=5:direct=auto:subme=8:trellis=2:vbv-bufsize=31250:vbv-maxrate=25000:rc-lookahead=50
x264 [info]: using SAR=9/16
x264 [info]: using cpu capabilities: ARMv8 NEON
x264 [info]: profile High, level 4.0, 4:2:0, 8-bit
[22:28:31] Auto-Rotating video 270 degrees
[22:28:31] sync: first pts video is 0
[22:28:31] sync: Chapter 1 at frame 1 time 0
[22:28:31] sync: first pts audio 0x1 is 0
[22:28:31] sync: first pts audio 0x1 is 0
[2025-06-08 22:28:37] Script started with 1 arguments: /Users/christian/Dropbox/Camera Uploads/2025-07-08 17.00.30.mp4.tmp
[2025-06-08 22:28:37] Running Image Converter...
[2025-06-08 22:28:37] Running Video Processor...
[2025-06-08 22:28:37] Running Image Processor...
[2025-06-08 22:28:38] Running File Organizer...
[2025-06-08 22:28:38] Script completed successfully
[22:28:45] reader: done. 1 scr changes
[22:28:52] work: average encoding speed for job is 22.909849 fps
[22:28:52] comb detect: heavy 0 | light 3 | uncombed 354 | total 357
[22:28:52] decomb: deinterlaced 0 | blended 3 | unfiltered 354 | total 357
[22:28:52] vfr: 357 frames output, 0 dropped and 0 duped for CFR/PFR
[22:28:52] vfr: lost time: 0 (0 frames)
[22:28:52] vfr: gained time: 0 (0 frames) (0 not accounted for)
[22:28:52] aac-decoder done: 558 frames, 0 decoder errors
[22:28:52] aac-decoder done: 558 frames, 0 decoder errors
[22:28:52] hevc-decoder done: 357 frames, 0 decoder errors
[22:28:52] sync: got 357 frames, 356 expected
[22:28:52] sync: framerate min 29.992 fps, max 29.992 fps, avg 29.992 fps
x264 [info]: frame I:2     Avg QP:19.52  size:134214
x264 [info]: frame P:90    Avg QP:21.00  size: 48670
x264 [info]: frame B:265   Avg QP:24.31  size: 10941
x264 [info]: consecutive B-frames:  0.8%  0.6%  0.0% 98.6%
x264 [info]: mb I  I16..4: 12.6% 65.4% 22.0%
x264 [info]: mb P  I16..4:  7.0% 16.1%  1.3%  P16..4: 41.3% 19.4% 11.4%  0.0%  0.0%    skip: 3.4%
x264 [info]: mb B  I16..4:  1.2%  2.3%  0.2%  B16..8: 39.4%  6.4%  1.2%  direct: 7.4%  skip:41.8%  L0:41.3% L1:47.6% BI:11.1%
x264 [info]: 8x8 transform intra:64.5% inter:70.5%
x264 [info]: direct mvs  spatial:97.7% temporal:2.3%
x264 [info]: coded y,uvDC,uvAC intra: 50.1% 63.1% 15.3% inter: 22.4% 31.5% 2.0%
x264 [info]: i16 v,h,dc,p: 10% 27%  6% 57%
x264 [info]: i8 v,h,dc,ddl,ddr,vr,hd,vl,hu:  9% 19% 12%  8% 10%  9% 14%  7% 14%
x264 [info]: i4 v,h,dc,ddl,ddr,vr,hd,vl,hu:  9% 21%  8%  6% 11%  9% 14%  7% 14%
x264 [info]: i8c dc,h,v,p: 39% 41% 12%  8%
x264 [info]: Weighted P-Frames: Y:5.6% UV:0.0%
x264 [info]: ref P L0: 50.5% 15.9% 16.8%  9.0%  7.7%  0.2%
x264 [info]: ref B L0: 81.0% 12.2%  4.8%  2.1%
x264 [info]: ref B L1: 93.5%  6.5%
x264 [info]: kb/s:5072.95
[22:28:52] mux: track 0, 357 frames, 7548033 bytes, 5058.72 kbps, fifo 512
[22:28:52] mux: track 1, 561 frames, 241440 bytes, 161.81 kbps, fifo 1024
[22:28:52] mux: track 2, 372 frames, 952320 bytes, 638.25 kbps, fifo 512
[22:28:52] Finished work at: Sun Jun  8 22:28:52 2025

[22:28:53] libhb: work result = 0

Encode done!
HandBrake has exited.
[2025-06-08 22:28:53] Running Image Processor...
[2025-06-08 22:28:53] Running File Organizer...
[2025-06-08 22:28:53] Script completed successfully
[2025-06-08 22:34:41] Script started with 1 arguments: /Users/christian/Dropbox/Camera Uploads/2025-07-08 17.00.30.mov
[2025-06-08 22:34:41] Running Image Converter...
[2025-06-08 22:34:42] Running Video Processor...
/Users/christian/Dropbox/Dokumenter/Computer/Scripts and Apps/Automator/Folder Actions/Dropbox - Camera Uploads/Video Processor.sh: line 9: logger.py: No such file or directory
[2025-06-08 22:34:42] ERROR: Video Processor failed
[2025-06-08 22:38:12] Script started with 1 arguments: /Users/christian/Dropbox/Camera Uploads/2025-07-08 17.00.30.mov
[2025-06-08 22:38:12] Running Image Converter...
[2025-06-08 22:38:12] Running Video Processor...
[22:38:12] Compile-time hardening features are enabled
[22:38:12] hb_init: starting libhb thread
[22:38:12] thread 16bb33000 started ("libhb")
HandBrake 1.9.2 (2025022300) - Darwin arm64 - https://handbrake.fr
8 CPUs detected
Opening /Users/christian/Dropbox/Camera Uploads/2025-07-08 17.00.30.mov...
[22:38:12] CPU: Apple M3
[22:38:12]  - logical processor count: 8
[22:38:12] hb_scan: path=/Users/christian/Dropbox/Camera Uploads/2025-07-08 17.00.30.mov, title_index=1
Input #0, mov,mp4,m4a,3gp,3g2,mj2, from '/Users/christian/Dropbox/Camera Uploads/2025-07-08 17.00.30.mov':
  Metadata:
    major_brand     : qt  
    minor_version   : 0
    compatible_brands: qt  
    creation_time   : 2025-06-08T15:00:31.000000Z
    com.apple.quicktime.location.accuracy.horizontal: 17.779372
    com.apple.quicktime.full-frame-rate-playback-intent: 0
    com.apple.quicktime.location.ISO6709: +55.6182+012.3350+011.489/
    com.apple.quicktime.make: Apple
    com.apple.quicktime.model: iPhone 16 Pro
    com.apple.quicktime.software: 18.5
    com.apple.quicktime.creationdate: 2025-06-08T17:00:30+0200
  Duration: 00:00:11.90, start: 0.000000, bitrate: 10443 kb/s
  Stream #0:0[0x1](und): Video: hevc (Main) (hvc1 / 0x31637668), yuv420p(tv, bt709), 1920x1080, 9820 kb/s, 29.99 fps, 29.97 tbr, 600 tbn (default)
      Metadata:
        creation_time   : 2025-06-08T15:00:31.000000Z
        handler_name    : Core Media Video
        vendor_id       : [0][0][0][0]
        encoder         : HEVC
      Side data:
        displaymatrix: rotation of -90.00 degrees
  Stream #0:1[0x2](und): Audio: aac (LC) (mp4a / 0x6134706D), 48000 Hz, stereo, fltp, 128 kb/s (default)
      Metadata:
        creation_time   : 2025-06-08T15:00:31.000000Z
        handler_name    : Core Media Audio
        vendor_id       : [0][0][0][0]
  Stream #0:2[0x3](und): Audio: none (apac / 0x63617061), 48000 Hz, 4 channels, 399 kb/s
      Metadata:
        creation_time   : 2025-06-08T15:00:31.000000Z
        handler_name    : Core Media Audio
        vendor_id       : [0][0][0][0]
      Side data:
        unknown side data type 9 (4 bytes)
  Stream #0:3[0x4](und): Data: none (mebx / 0x7862656D), 0 kb/s (default)
      Metadata:
        creation_time   : 2025-06-08T15:00:31.000000Z
        handler_name    : Core Media Metadata
  Stream #0:4[0x5](und): Data: none (mebx / 0x7862656D), 0 kb/s (default)
      Metadata:
        creation_time   : 2025-06-08T15:00:31.000000Z
        handler_name    : Core Media Metadata
  Stream #0:5[0x6](und): Data: none (mebx / 0x7862656D), 14 kb/s (default)
      Metadata:
        creation_time   : 2025-06-08T15:00:31.000000Z
        handler_name    : Core Media Metadata
  Stream #0:6[0x7](und): Data: none (mebx / 0x7862656D), 46 kb/s (default)
      Metadata:
        creation_time   : 2025-06-08T15:00:31.000000Z
        handler_name    : Core Media Metadata
  Stream #0:7[0x8](und): Data: none (mebx / 0x7862656D), 0 kb/s (default)
      Metadata:
        creation_time   : 2025-06-08T15:00:31.000000Z
        handler_name    : Core Media Metadata
[22:38:12] scan: decoding previews for title 1
[22:38:12] Auto-Rotating video 270 degrees
Scanning title 1 of 1, preview 1, 10.00 %[22:38:12] scan: audio 0x1: aac, rate=48000Hz, bitrate=128248 Unknown (AAC LC, 2.0 ch, 128 kbps)
Scanning title 1 of 1, preview 3, 30.00 %Scanning title 1 of 1, preview 5, 50.00 %Scanning title 1 of 1, preview 7, 70.00 %Scanning title 1 of 1, preview 9, 90.00 %[22:38:13] scan: 10 previews, 1080x1920, 29.992 fps, autocrop = 0/0/0/0, aspect 1:1.78, PAR 1:1, color profile: 1-1-1, chroma location: left
[22:38:13] libhb: scan thread found 1 valid title(s)
+ Using preset: HQ 1080p30 Surround
+ title 1:
  + stream: /Users/christian/Dropbox/Camera Uploads/2025-07-08 17.00.30.mov
  + duration: 00:00:11
  + size: 1080x1920, pixel aspect: 1/1, display aspect: 0.56, 29.992 fps
  + autocrop: 0/0/0/0
  + chapters:
    + 1: duration 00:00:11
  + audio tracks:
    + 1, Unknown (AAC LC, 2.0 ch, 128 kbps) (iso639-2: und)
  + subtitle tracks:
[22:38:13] Starting work at: Sun Jun  8 22:38:13 2025

[22:38:13] 1 job(s) to process
[22:38:13] json job:
{
    "Audio": {
        "AudioList": [
            {
                "Bitrate": 160,
                "CompressionLevel": -1.0,
                "DRC": 0.0,
                "DitherMethod": "auto",
                "Encoder": "ca_aac",
                "Gain": 0.0,
                "Mixdown": "stereo",
                "NormalizeMixLevel": false,
                "PresetEncoder": "ca_aac",
                "Quality": -3.0,
                "Samplerate": 0,
                "Track": 0
            },
            {
                "Bitrate": 640,
                "CompressionLevel": -1.0,
                "DRC": 0.0,
                "DitherMethod": "auto",
                "Encoder": "ac3",
                "Gain": 0.0,
                "Mixdown": "stereo",
                "NormalizeMixLevel": false,
                "PresetEncoder": "copy:ac3",
                "Quality": -3.0,
                "Samplerate": 0,
                "Track": 0
            }
        ],
        "CopyMask": [
            "copy:aac",
            "copy:ac3"
        ],
        "FallbackEncoder": "ca_aac"
    },
    "Destination": {
        "AlignAVStart": true,
        "ChapterList": [
            {
                "Duration": {
                    "Hours": 0,
                    "Minutes": 0,
                    "Seconds": 11,
                    "Ticks": 1071299
                },
                "Name": ""
            }
        ],
        "ChapterMarkers": false,
        "File": "/Users/christian/Dropbox/Camera Uploads/2025-07-08 17.00.30.mp4.tmp",
        "InlineParameterSets": false,
        "Mux": "m4v",
        "Options": {
            "IpodAtom": false,
            "Optimize": true
        }
    },
    "Filters": {
        "FilterList": [
            {
                "ID": 4,
                "Settings": {
                    "block-height": "16",
                    "block-thresh": "40",
                    "block-width": "16",
                    "filter-mode": "2",
                    "mode": "3",
                    "motion-thresh": "1",
                    "spatial-metric": "2",
                    "spatial-thresh": "1"
                }
            },
            {
                "ID": 6,
                "Settings": {
                    "mode": "7"
                }
            },
            {
                "ID": 11,
                "Settings": {
                    "mode": 2,
                    "rate": "27000000/900000"
                }
            },
            {
                "ID": 20,
                "Settings": {
                    "crop-bottom": 0,
                    "crop-left": 0,
                    "crop-right": 0,
                    "crop-top": 0,
                    "height": 1080,
                    "width": 1080
                }
            }
        ]
    },
    "Metadata": {},
    "PAR": {
        "Den": 16,
        "Num": 9
    },
    "SequenceID": 0,
    "Source": {
        "Angle": 0,
        "HWDecode": 0,
        "KeepDuplicateTitles": false,
        "Path": "/Users/christian/Dropbox/Camera Uploads/2025-07-08 17.00.30.mov",
        "Range": {
            "End": 1,
            "Start": 1,
            "Type": "chapter"
        },
        "Title": 1
    },
    "Subtitle": {
        "Search": {
            "Burn": true,
            "Default": false,
            "Enable": false,
            "Forced": false
        },
        "SubtitleList": []
    },
    "Video": {
        "ChromaLocation": 1,
        "ColorInputFormat": 0,
        "ColorMatrix": 1,
        "ColorOutputFormat": 0,
        "ColorPrimaries": 1,
        "ColorRange": 1,
        "ColorTransfer": 1,
        "Encoder": "x264",
        "HardwareDecode": 0,
        "Level": "4.0",
        "MultiPass": false,
        "Options": "",
        "Preset": "slow",
        "Profile": "high",
        "QSV": {
            "AdapterIndex": 0,
            "AsyncDepth": 0,
            "Decode": false
        },
        "Quality": 20.0,
        "Tune": "",
        "Turbo": false
    }
}
[22:38:13] Starting Task: Encoding Pass
[22:38:13] job configuration:
[22:38:13]  * source
[22:38:13]    + /Users/christian/Dropbox/Camera Uploads/2025-07-08 17.00.30.mov
[22:38:13]    + title 1, chapter(s) 1 to 1
[22:38:13]    + container: mov,mp4,m4a,3gp,3g2,mj2
[22:38:13]    + data rate: 10443 kbps
[22:38:13]  * destination
[22:38:13]    + /Users/christian/Dropbox/Camera Uploads/2025-07-08 17.00.30.mp4.tmp
[22:38:13]    + container: MPEG-4 (libavformat)
[22:38:13]      + optimized for HTTP streaming (fast start)
[22:38:13]      + align initial A/V stream timestamps
[22:38:13]  * video track
[22:38:13]    + decoder: hevc 8-bit (yuv420p)
[22:38:13]      + bitrate 9820 kbps
[22:38:13]    + filters
[22:38:13]      + Comb Detect (mode=3:spatial-metric=2:motion-thresh=1:spatial-thresh=1:filter-mode=2:block-thresh=40:block-width=16:block-height=16)
[22:38:13]      + Decomb (mode=39)
[22:38:13]      + Framerate Shaper (mode=2:rate=27000000/900000)
[22:38:13]        + frame rate: 29.992 fps -> peak rate limited to 30.000 fps
[22:38:13]      + Crop and Scale (width=1080:height=1080:crop-top=0:crop-bottom=0:crop-left=0:crop-right=0)
[22:38:13]        + source: 1080 * 1920, crop (0/0/0/0): 1080 * 1920, scale: 1080 * 1080
[22:38:13]    + Output geometry
[22:38:13]      + storage dimensions: 1080 x 1080
[22:38:13]      + pixel aspect ratio: 9 : 16
[22:38:13]      + display dimensions: 607 x 1080
[22:38:13]    + encoder: H.264 (libx264)
[22:38:13]      + preset:  slow
[22:38:13]      + profile: high
[22:38:13]      + level:   4.0
[22:38:13]      + quality: 20.00 (RF)
[22:38:13]      + color profile: 1-1-1
[22:38:13]      + color range: tv
[22:38:13]      + chroma location: left
[22:38:13]  * audio track 1
[22:38:13]    + decoder: Unknown (AAC LC, 2.0 ch, 128 kbps) (track 1, id 0x1)
[22:38:13]      + bitrate: 128 kbps, samplerate: 48000 Hz
[22:38:13]    + mixdown: Stereo
[22:38:13]    + encoder: AAC (Apple AudioToolbox)
[22:38:13]      + bitrate: 160 kbps, samplerate: 48000 Hz
[22:38:13]  * audio track 2
[22:38:13]    + decoder: Unknown (AAC LC, 2.0 ch, 128 kbps) (track 1, id 0x1)
[22:38:13]      + bitrate: 128 kbps, samplerate: 48000 Hz
[22:38:13]    + mixdown: Stereo
[22:38:13]    + encoder: AC3 (libavcodec)
[22:38:13]      + bitrate: 640 kbps, samplerate: 48000 Hz
[22:38:13] sync: expecting 356 video frames
[22:38:13] encx264: min-keyint: 30, keyint: 300
[22:38:13] encx264: encoding at constant RF 20.000000
[22:38:13] encx264: unparsed options: level=4.0:ref=5:direct=auto:subme=8:trellis=2:vbv-bufsize=31250:vbv-maxrate=25000:rc-lookahead=50
x264 [info]: using SAR=9/16
x264 [info]: using cpu capabilities: ARMv8 NEON
x264 [info]: profile High, level 4.0, 4:2:0, 8-bit
[22:38:13] Auto-Rotating video 270 degrees
[22:38:14] sync: first pts video is 0
[22:38:14] sync: Chapter 1 at frame 1 time 0
[22:38:14] sync: first pts audio 0x1 is 0
[22:38:14] sync: first pts audio 0x1 is 0
[2025-06-08 22:38:19] Script started with 1 arguments: /Users/christian/Dropbox/Camera Uploads/2025-07-08 17.00.30.mp4.tmp
[2025-06-08 22:38:19] Running Image Converter...
[2025-06-08 22:38:19] Running Video Processor...
[2025-06-08 22:38:19] Running Image Processor...
[2025-06-08 22:38:19] Running File Organizer...
[2025-06-08 22:38:20] Script completed successfully
[22:38:30] reader: done. 1 scr changes
[22:38:36] work: average encoding speed for job is 19.925440 fps
[22:38:36] comb detect: heavy 0 | light 3 | uncombed 354 | total 357
[22:38:36] decomb: deinterlaced 0 | blended 3 | unfiltered 354 | total 357
[22:38:36] vfr: 357 frames output, 0 dropped and 0 duped for CFR/PFR
[22:38:36] vfr: lost time: 0 (0 frames)
[22:38:36] vfr: gained time: 0 (0 frames) (0 not accounted for)
[22:38:36] aac-decoder done: 558 frames, 0 decoder errors
[22:38:36] aac-decoder done: 558 frames, 0 decoder errors
[22:38:36] hevc-decoder done: 357 frames, 0 decoder errors
[22:38:36] sync: got 357 frames, 356 expected
[22:38:36] sync: framerate min 29.992 fps, max 29.992 fps, avg 29.992 fps
x264 [info]: frame I:2     Avg QP:19.52  size:134214
x264 [info]: frame P:90    Avg QP:21.00  size: 48670
x264 [info]: frame B:265   Avg QP:24.31  size: 10941
x264 [info]: consecutive B-frames:  0.8%  0.6%  0.0% 98.6%
x264 [info]: mb I  I16..4: 12.6% 65.4% 22.0%
x264 [info]: mb P  I16..4:  7.0% 16.1%  1.3%  P16..4: 41.3% 19.4% 11.4%  0.0%  0.0%    skip: 3.4%
x264 [info]: mb B  I16..4:  1.2%  2.3%  0.2%  B16..8: 39.4%  6.4%  1.2%  direct: 7.4%  skip:41.8%  L0:41.3% L1:47.6% BI:11.1%
x264 [info]: 8x8 transform intra:64.5% inter:70.5%
x264 [info]: direct mvs  spatial:97.7% temporal:2.3%
x264 [info]: coded y,uvDC,uvAC intra: 50.1% 63.1% 15.3% inter: 22.4% 31.5% 2.0%
x264 [info]: i16 v,h,dc,p: 10% 27%  6% 57%
x264 [info]: i8 v,h,dc,ddl,ddr,vr,hd,vl,hu:  9% 19% 12%  8% 10%  9% 14%  7% 14%
x264 [info]: i4 v,h,dc,ddl,ddr,vr,hd,vl,hu:  9% 21%  8%  6% 11%  9% 14%  7% 14%
x264 [info]: i8c dc,h,v,p: 39% 41% 12%  8%
x264 [info]: Weighted P-Frames: Y:5.6% UV:0.0%
x264 [info]: ref P L0: 50.5% 15.9% 16.8%  9.0%  7.7%  0.2%
x264 [info]: ref B L0: 81.0% 12.2%  4.8%  2.1%
x264 [info]: ref B L1: 93.5%  6.5%
x264 [info]: kb/s:5072.95
[22:38:36] mux: track 0, 357 frames, 7548033 bytes, 5058.72 kbps, fifo 512
[22:38:36] mux: track 1, 561 frames, 241440 bytes, 161.81 kbps, fifo 1024
[22:38:36] mux: track 2, 372 frames, 952320 bytes, 638.25 kbps, fifo 512
[22:38:36] Finished work at: Sun Jun  8 22:38:36 2025

[22:38:36] libhb: work result = 0

Encode done!
HandBrake has exited.
[2025-06-08 22:38:36] Running Image Processor...
[2025-06-08 22:38:36] Running File Organizer...
[2025-06-08 22:38:36] Script completed successfully
